<svg width="100" height="40" viewBox="0 0 100 40" fill="none" xmlns="http://www.w3.org/2000/svg">
<path d="M12.7355 25.691C14.1882 27.657 15.6119 29.5939 17.0356 31.5309C18.4689 33.4775 19.9023 35.4339 21.355 37.3612C21.5874 37.6807 21.5293 37.7776 21.2194 37.9519C20.0475 38.5911 18.8757 39.24 17.7232 39.9083C17.4811 40.0535 17.3648 40.0342 17.2002 39.792C13.6362 34.5138 10.0625 29.2453 6.48881 23.9768C6.33386 23.7443 6.33386 23.5506 6.40165 23.2988C6.52755 22.8824 6.4985 22.3497 6.75999 22.0689C7.01179 21.7977 7.55414 22.0011 7.9609 21.9623C9.27804 21.8461 10.5274 21.5459 11.6508 20.8001C14.1398 19.1344 14.2173 14.7375 11.031 13.2751C10.1206 12.8586 9.1715 12.6359 8.18365 12.5971C7.33139 12.5681 6.46944 12.6068 5.61718 12.5778C5.2879 12.5681 5.25884 12.7037 5.25884 12.9748C5.26853 15.2314 5.26853 17.4976 5.26853 19.7542C5.26853 26.1558 5.25884 32.5672 5.27821 38.9688C5.27821 39.424 5.15231 39.5209 4.7165 39.5112C3.28315 39.4821 1.84011 39.4918 0.406763 39.5112C0.0968492 39.5112 0 39.4337 0 39.1141C0.0096848 28.7901 0.0096848 18.4564 0 8.13243C0 7.81283 0.0968492 7.73536 0.406763 7.73536C2.9926 7.74504 5.56876 7.71599 8.1546 7.75473C11.031 7.79347 13.6362 8.57793 15.8346 10.5439C20.5027 14.7084 19.4277 23.1439 13.1035 25.5457C12.997 25.5844 12.8905 25.6329 12.7355 25.691Z" fill="#0A524D"/>
<path d="M97.1882 27.938C97.1882 27.0567 97.1979 26.2819 97.1785 25.5071C97.1785 25.265 97.2269 25.1585 97.4981 25.1778C98.0114 25.2069 98.67 25.0132 98.9993 25.265C99.3092 25.5071 99.0864 26.2044 99.0864 26.6984C99.0961 30.7175 99.0767 34.7367 99.1058 38.7559C99.1058 39.2402 98.9702 39.3661 98.515 39.3176C98.176 39.2789 97.8371 39.2983 97.4981 39.3176C97.2463 39.337 97.1688 39.2499 97.1688 38.9981C97.1882 38.2136 97.1785 37.4388 97.1785 36.5672C94.5927 40.5186 88.8883 40.5573 85.9054 37.555C82.9612 34.5915 82.9612 29.9137 85.9054 26.9695C88.9077 23.9479 94.6023 23.9866 97.1882 27.938ZM85.6149 32.2284C85.6052 35.4244 88.1426 37.9618 91.3483 37.9715C94.612 37.9811 97.1785 35.4825 97.1882 32.2865C97.1979 29.0808 94.6605 26.524 91.4839 26.5143C88.1813 26.5047 85.6245 28.9937 85.6149 32.2284Z" fill="#487673"/>
<path d="M49.334 32.2281C49.334 28.0636 52.6946 24.7901 56.9753 24.7998C61.2172 24.7998 64.6166 28.0927 64.6166 32.199C64.6166 36.3538 61.2463 39.6563 56.985 39.6563C52.7237 39.666 49.334 36.3828 49.334 32.2281ZM51.2419 32.199C51.2322 35.4241 53.7309 37.9518 56.9366 37.9615C60.1713 37.9712 62.7087 35.4725 62.7184 32.2862C62.7281 29.003 60.2197 26.4559 56.9753 26.4656C53.7406 26.485 51.2419 28.9837 51.2419 32.199Z" fill="#487673"/>
<path d="M38.2445 32.2865C38.2445 34.485 38.2348 36.6737 38.2542 38.8722C38.2542 39.2596 38.1379 39.3758 37.7699 39.3467C37.3244 39.308 36.753 39.492 36.4528 39.2789C36.1622 39.0756 36.3947 38.4654 36.3559 38.0393C36.3462 37.9328 36.4044 37.7778 36.2688 37.7487C36.1041 37.71 36.046 37.894 35.9589 38.0006C34.5449 39.5598 32.7629 40.044 30.7678 39.5501C28.7824 39.0659 27.5621 37.7294 27.0198 35.7634C26.8551 35.1532 26.8261 34.5237 26.8261 33.8942C26.8261 31.1534 26.8358 28.4126 26.8164 25.6621C26.8164 25.2747 26.9229 25.1585 27.3006 25.1972C27.6396 25.2263 27.9786 25.2263 28.3175 25.1972C28.6759 25.1585 28.7243 25.3038 28.7243 25.6234C28.7146 28.0252 28.7146 30.427 28.7243 32.8385C28.7243 33.9717 28.8696 35.0854 29.3829 36.1217C30.0318 37.4291 31.1068 38.0296 32.5401 38.0296C33.9735 38.0296 35.0485 37.4291 35.6974 36.1217C36.201 35.1145 36.3462 34.0298 36.3559 32.9354C36.3656 30.5142 36.3656 28.093 36.3559 25.6718C36.3559 25.3135 36.414 25.1488 36.8111 25.1972C37.1307 25.236 37.46 25.2263 37.7796 25.1972C38.1573 25.1585 38.2638 25.2844 38.2638 25.6718C38.2445 27.7347 38.2542 29.7975 38.2542 31.8701C38.2445 31.996 38.2445 32.1412 38.2445 32.2865Z" fill="#487673"/>
<path d="M70.5058 26.8439C71.3678 25.7399 72.4525 25.0716 73.8277 24.8392C76.7138 24.3549 79.4836 26.3984 79.842 29.3039C79.9388 30.1077 79.9195 30.9115 79.9291 31.7154C79.9291 34.1075 79.9195 36.49 79.9388 38.8821C79.9388 39.2211 79.8517 39.3373 79.5127 39.3083C79.164 39.2792 78.796 39.2695 78.4474 39.3083C78.06 39.347 78.0115 39.192 78.0115 38.8434C78.0212 36.4416 78.0212 34.0397 78.0212 31.6282C78.0212 30.4854 77.876 29.3814 77.3627 28.3451C76.7041 27.0279 75.6194 26.4565 74.1861 26.4662C72.7721 26.4662 71.7068 27.0667 71.0676 28.3548C70.6995 29.1005 70.4671 29.8946 70.4574 30.7179C70.4284 33.4102 70.4187 36.1026 70.4284 38.795C70.4284 39.192 70.3315 39.3373 69.9247 39.2986C69.4792 39.2598 68.8788 39.4439 68.6173 39.2211C68.3171 38.9596 68.5204 38.3398 68.5204 37.8846C68.5108 33.8073 68.5205 29.7203 68.5011 25.643C68.5011 25.2363 68.6076 25.1007 69.0047 25.1491C69.4502 25.1975 70.0313 24.9748 70.3121 25.2363C70.593 25.5074 70.3702 26.0885 70.3993 26.534C70.409 26.6309 70.3702 26.7277 70.5058 26.8439Z" fill="#487673"/>
<path d="M45.2574 27.9283C45.2574 31.5601 45.2477 35.1822 45.267 38.814C45.267 39.2208 45.1702 39.3564 44.7634 39.308C44.4245 39.2692 44.0855 39.2789 43.7465 39.308C43.3882 39.3467 43.3301 39.2014 43.3301 38.8721C43.3398 31.5795 43.3398 24.2965 43.3301 17.0039C43.3301 16.6358 43.4269 16.5293 43.7853 16.5584C44.1339 16.5874 44.4923 16.5874 44.8506 16.5584C45.2089 16.5196 45.267 16.6649 45.267 16.9942C45.2477 20.6453 45.2574 24.2868 45.2574 27.9283Z" fill="#487673"/>
<path d="M25.2181 23.9767C25.0535 24.8096 24.6564 25.72 23.7751 26.3495C23.3296 26.6691 22.8454 26.5625 22.7098 26.0783C22.3224 24.6837 21.2377 24.0348 20.0852 23.4053C19.785 23.2407 19.2717 23.231 19.2136 22.9114C19.1651 22.6596 19.5138 22.34 19.6494 22.0301C19.8043 21.6524 19.969 21.6814 20.2789 21.8848C20.9762 22.3593 21.7219 22.737 22.5355 22.9501C23.0972 23.0954 23.6395 23.0857 24.2109 22.9501C24.9373 22.7758 25.2278 23.0276 25.2181 23.9767Z" fill="#E3710E"/>
<path d="M17.3168 2.17653C18.2659 2.37023 19.186 2.82541 19.7961 3.75515C20.0963 4.21034 19.9511 4.71395 19.4862 4.82048C18.111 5.11102 17.404 6.13761 16.7454 7.232C16.7357 7.24168 16.726 7.26105 16.7163 7.27074C16.5033 7.57096 16.4549 8.16174 16.1643 8.16174C15.806 8.16174 15.4476 7.77434 15.0893 7.56128C14.8472 7.41601 15.0118 7.29979 15.099 7.18357C15.5929 6.50564 16.0094 5.77928 16.2999 4.98512C16.5226 4.35561 16.542 3.73578 16.4064 3.0869C16.2902 2.48644 16.5904 2.14748 17.3168 2.17653Z" fill="#E3710E"/>
<path d="M6.31621 4.89781C6.35495 3.52257 6.24841 2.31197 5.30899 1.32412C4.99907 0.994841 5.1056 0.617133 5.50268 0.345959C6.21936 -0.157651 8.11758 -0.0995421 8.79551 0.442807C9.16354 0.73335 9.26039 1.1498 8.9311 1.45002C7.73019 2.52504 7.70113 3.93902 7.71081 5.37237C7.71081 6.0503 7.7205 6.0503 7.03288 6.02125C6.21936 5.98251 6.21936 5.98251 6.29684 5.18836C6.29684 5.05277 6.31621 4.91718 6.31621 4.89781Z" fill="#E3710E"/>
<path d="M26.44 13.6042C26.4207 13.7494 26.411 13.9625 26.3529 14.1659C26.1882 14.6986 25.7234 14.9213 25.2585 14.6308C24.29 14.0206 23.2634 14.0884 22.2271 14.3208C21.8204 14.408 21.4136 14.5145 21.0165 14.6501C20.6969 14.7663 20.571 14.6889 20.542 14.3596C20.5226 14.1562 20.4839 13.9335 20.3967 13.7494C20.1933 13.2943 20.4451 13.2168 20.8132 13.178C21.4911 13.1102 22.14 12.9069 22.7695 12.6551C23.4377 12.3839 23.9995 11.9674 24.3965 11.3476C24.813 10.7084 25.2779 10.6987 25.733 11.3186C26.2173 11.9674 26.3819 12.7422 26.44 13.6042Z" fill="#E3710E"/>
<path d="M25.2671 18.253C25.2477 18.8147 25.1703 19.4151 24.8313 19.9478C24.4826 20.4901 23.9693 20.5579 23.6207 20.0253C22.9524 19.0277 21.9936 18.8534 20.9186 18.9115C20.6862 18.9212 20.599 18.9018 20.6378 18.6404C20.6862 18.2723 20.5797 17.8268 20.7637 17.5557C20.9767 17.2264 21.4222 17.5557 21.7709 17.546C22.5554 17.5363 23.2042 17.3426 23.7563 16.7421C24.2889 16.161 24.8313 16.3063 25.1025 17.0424C25.2284 17.4298 25.2574 17.8075 25.2671 18.253Z" fill="#E3710E"/>
<path d="M20.8022 6.42822C20.8894 6.45728 21.0443 6.46696 21.1702 6.53476C22.129 7.08679 22.8166 7.87126 23.02 8.99469C23.1266 9.58547 22.7392 9.97286 22.1678 9.8179C21.054 9.50799 20.2114 9.95349 19.4754 10.6895C19.2333 10.9317 19.117 10.9123 18.9524 10.6411C18.7684 10.3409 18.3907 10.0697 18.381 9.77916C18.3713 9.48862 18.8749 9.40145 19.1267 9.1787C19.7175 8.6751 20.1146 8.10369 20.1146 7.28049C20.1049 6.71877 20.3567 6.43791 20.8022 6.42822Z" fill="#E3710E"/>
<path d="M2.06179 6.07953C1.96495 6.07953 1.8681 6.06984 1.77125 6.07953C1.38386 6.12795 1.30638 6.01173 1.35481 5.60497C1.46134 4.64618 1.30638 3.75518 0.463803 3.09661C-0.146339 2.62206 -0.0398076 2.01191 0.686552 1.73105C1.58724 1.39209 2.51698 1.36303 3.42735 1.73105C4.12465 2.01191 4.26024 2.63174 3.68884 3.06756C2.83658 3.72612 2.67194 4.60744 2.77847 5.56623C2.83658 6.0311 2.71068 6.13764 2.30391 6.06984C2.22644 6.06984 2.13927 6.07953 2.06179 6.07953Z" fill="#E3710E"/>
<path d="M11.6984 1.80859C12.4538 1.84733 13.122 1.95387 13.7031 2.33157C14.3423 2.74802 14.381 3.33879 13.7322 3.69713C12.7443 4.22979 12.4828 5.11111 12.4344 6.11833C12.415 6.47667 12.3279 6.56383 11.9889 6.46698C11.6499 6.37013 11.1657 6.42824 10.9914 6.22486C10.8461 6.05053 11.0882 5.58566 11.1366 5.23701C11.2238 4.55908 11.1657 3.92956 10.6911 3.37753C10.4393 3.09667 10.1197 2.80613 10.3134 2.36063C10.5071 1.93449 10.9236 1.87639 11.3303 1.82796C11.4756 1.80859 11.6209 1.80859 11.6984 1.80859Z" fill="#E3710E"/>
<path d="M17.4518 28.9838C17.8489 27.87 17.2291 27.0274 16.4349 26.2527C16.2896 26.1074 16.2412 26.0105 16.4446 25.8943C16.4543 25.8846 16.4736 25.875 16.4833 25.8653C16.7739 25.6328 17.045 25.2551 17.3646 25.2164C17.6745 25.1777 17.7811 25.7006 18.0135 25.9428C18.5268 26.4948 19.0885 26.8725 19.902 26.8531C20.7737 26.8338 21.0642 27.3858 20.609 28.1315C20.1248 28.9257 19.4372 29.4971 18.5462 29.7973C17.8779 30.0104 17.4227 29.6908 17.4518 28.9838Z" fill="#E3710E"/>
</svg>
