<svg width="145" height="58" viewBox="0 0 145 58" fill="none" xmlns="http://www.w3.org/2000/svg">
<path d="M19.154 37.2521C21.2604 40.1028 23.3247 42.9114 25.3891 45.72C27.4674 48.5427 29.5458 51.3793 31.6522 54.1739C31.9892 54.6373 31.905 54.7777 31.4556 55.0305C29.7564 55.9574 28.0572 56.8982 26.3861 57.8672C26.035 58.0778 25.8665 58.0498 25.6278 57.6987C20.46 50.0453 15.2781 42.4059 10.0963 34.7665C9.87159 34.4295 9.87159 34.1486 9.96989 33.7835C10.1524 33.1797 10.1103 32.4073 10.4895 32.0001C10.8546 31.6069 11.641 31.9018 12.2308 31.8456C14.1407 31.6771 15.9522 31.2417 17.5812 30.1604C21.1902 27.745 21.3026 21.3695 16.6824 19.2491C15.3624 18.6452 13.9862 18.3222 12.5538 18.2661C11.318 18.2239 10.0682 18.2801 8.83241 18.238C8.35495 18.2239 8.31282 18.4205 8.31282 18.8137C8.32687 22.0857 8.32686 25.3718 8.32686 28.6438C8.32686 37.9262 8.31282 47.2226 8.34091 56.505C8.34091 57.165 8.15835 57.3055 7.52642 57.2914C5.44806 57.2493 3.35566 57.2633 1.27731 57.2914C0.827931 57.2914 0.6875 57.1791 0.6875 56.7157C0.701543 41.7459 0.701543 26.762 0.6875 11.7922C0.6875 11.3288 0.827931 11.2165 1.27731 11.2165C5.02677 11.2305 8.7622 11.1884 12.5117 11.2446C16.6824 11.3007 20.46 12.4382 23.6477 15.2889C30.4164 21.3274 28.8577 33.5588 19.6876 37.0415C19.5331 37.0977 19.3787 37.1679 19.154 37.2521Z" fill="white"/>
<path d="M141.611 40.5102C141.611 39.2323 141.625 38.1088 141.597 36.9854C141.597 36.6343 141.667 36.4798 142.06 36.5079C142.804 36.5501 143.759 36.2692 144.237 36.6343C144.686 36.9854 144.363 37.9965 144.363 38.7127C144.377 44.5405 144.349 50.3683 144.391 56.1961C144.391 56.8983 144.195 57.0809 143.535 57.0106C143.043 56.9545 142.552 56.9826 142.06 57.0106C141.695 57.0387 141.583 56.9123 141.583 56.5472C141.611 55.4097 141.597 54.2863 141.597 53.0224C137.847 58.752 129.576 58.8081 125.251 54.4548C120.982 50.1577 120.982 43.3749 125.251 39.1059C129.604 34.7245 137.861 34.7806 141.611 40.5102ZM124.829 46.7312C124.815 51.3654 128.495 55.0446 133.143 55.0587C137.875 55.0727 141.597 51.4496 141.611 46.8155C141.625 42.1672 137.945 38.4599 133.339 38.4458C128.551 38.4318 124.843 42.0408 124.829 46.7312Z" fill="white"/>
<path d="M72.2227 46.7309C72.2227 40.6925 77.0956 35.9459 83.3026 35.96C89.4534 35.96 94.3824 40.7346 94.3824 46.6888C94.3824 52.7132 89.4955 57.5019 83.3166 57.5019C77.1377 57.5159 72.2227 52.7554 72.2227 46.7309ZM74.9891 46.6888C74.9751 51.3651 78.5982 55.0303 83.2464 55.0444C87.9367 55.0584 91.616 51.4353 91.63 46.8152C91.6441 42.0546 88.0069 38.3613 83.3026 38.3754C78.6122 38.4035 74.9891 42.0266 74.9891 46.6888Z" fill="white"/>
<path d="M56.141 46.8154C56.141 50.0031 56.127 53.1768 56.155 56.3646C56.155 56.9263 55.9865 57.0948 55.4529 57.0527C54.8069 56.9965 53.9784 57.2633 53.5431 56.9544C53.1218 56.6595 53.4588 55.7748 53.4026 55.1569C53.3886 55.0024 53.4728 54.7777 53.2762 54.7356C53.0375 54.6794 52.9533 54.9463 52.8269 55.1007C50.7766 57.3616 48.1927 58.0638 45.2998 57.3476C42.421 56.6455 40.6516 54.7075 39.8652 51.8568C39.6265 50.9721 39.5844 50.0593 39.5844 49.1465C39.5844 45.1724 39.5984 41.1982 39.5703 37.21C39.5703 36.6483 39.7248 36.4798 40.2725 36.5359C40.764 36.5781 41.2555 36.5781 41.747 36.5359C42.2666 36.4798 42.3368 36.6904 42.3368 37.1538C42.3227 40.6365 42.3227 44.1191 42.3368 47.6158C42.3368 49.2588 42.5474 50.8738 43.2917 52.3764C44.2326 54.2722 45.7913 55.1429 47.8697 55.1429C49.9481 55.1429 51.5068 54.2722 52.4477 52.3764C53.1779 50.9159 53.3886 49.3431 53.4026 47.7563C53.4167 44.2455 53.4167 40.7348 53.4026 37.224C53.4026 36.7044 53.4869 36.4657 54.0627 36.5359C54.5261 36.5921 55.0035 36.5781 55.467 36.5359C56.0146 36.4798 56.1691 36.6623 56.1691 37.224C56.141 40.2152 56.155 43.2063 56.155 46.2115C56.141 46.3941 56.141 46.6047 56.141 46.8154Z" fill="white"/>
<path d="M102.922 38.9236C104.172 37.3227 105.744 36.3537 107.738 36.0167C111.923 35.3145 115.94 38.2776 116.459 42.4905C116.6 43.6561 116.571 44.8216 116.586 45.9872C116.586 49.4558 116.571 52.9104 116.6 56.379C116.6 56.8705 116.473 57.039 115.982 56.9969C115.476 56.9547 114.943 56.9407 114.437 56.9969C113.875 57.053 113.805 56.8283 113.805 56.3228C113.819 52.8401 113.819 49.3575 113.819 45.8608C113.819 44.2037 113.608 42.6028 112.864 41.1002C111.909 39.1904 110.336 38.3619 108.258 38.3759C106.208 38.3759 104.663 39.2466 103.736 41.1143C103.203 42.1956 102.866 43.3471 102.852 44.5408C102.809 48.4447 102.795 52.3486 102.809 56.2526C102.809 56.8283 102.669 57.039 102.079 56.9828C101.433 56.9266 100.563 57.1935 100.183 56.8705C99.748 56.4913 100.043 55.5926 100.043 54.9326C100.029 49.0205 100.043 43.0943 100.015 37.1823C100.015 36.5924 100.169 36.3958 100.745 36.4661C101.391 36.5363 102.234 36.2133 102.641 36.5924C103.048 36.9856 102.725 37.8282 102.767 38.4742C102.781 38.6146 102.725 38.7551 102.922 38.9236Z" fill="white"/>
<path d="M66.3102 40.4963C66.3102 45.7624 66.2961 51.0145 66.3242 56.2806C66.3242 56.8704 66.1838 57.067 65.594 56.9968C65.1025 56.9406 64.611 56.9546 64.1195 56.9968C63.5999 57.0529 63.5156 56.8423 63.5156 56.3648C63.5297 45.7905 63.5297 35.2302 63.5156 24.6558C63.5156 24.1222 63.6561 23.9677 64.1757 24.0098C64.6812 24.052 65.2008 24.052 65.7204 24.0098C66.24 23.9537 66.3242 24.1643 66.3242 24.6418C66.2961 29.936 66.3102 35.2161 66.3102 40.4963Z" fill="white"/>
<path d="M37.2543 34.7662C37.0156 35.9739 36.4398 37.2939 35.1619 38.2067C34.5159 38.6701 33.8138 38.5156 33.6172 37.8135C33.0554 35.7913 31.4826 34.8504 29.8115 33.9376C29.3762 33.6989 28.6319 33.6849 28.5477 33.2214C28.4774 32.8563 28.983 32.3929 29.1796 31.9435C29.4043 31.3959 29.643 31.438 30.0924 31.7329C31.1035 32.421 32.1848 32.9687 33.3644 33.2776C34.1789 33.4883 34.9653 33.4742 35.7938 33.2776C36.847 33.0248 37.2683 33.39 37.2543 34.7662Z" fill="#E3710E"/>
<path d="M25.796 3.15582C27.1722 3.43668 28.5063 4.0967 29.391 5.44482C29.8263 6.10484 29.6157 6.83508 28.9416 6.98955C26.9475 7.41084 25.9224 8.89939 24.9674 10.4862C24.9534 10.5003 24.9394 10.5284 24.9253 10.5424C24.6164 10.9778 24.5462 11.8344 24.1249 11.8344C23.6053 11.8344 23.0857 11.2727 22.5661 10.9637C22.215 10.7531 22.4538 10.5845 22.5801 10.416C23.2963 9.43303 23.9002 8.3798 24.3215 7.22828C24.6445 6.31549 24.6725 5.41674 24.4759 4.47586C24.3074 3.6052 24.7428 3.1137 25.796 3.15582Z" fill="#E3710E"/>
<path d="M9.84659 7.10183C9.90276 5.10773 9.74828 3.35236 8.38612 1.91998C7.93674 1.44252 8.09121 0.894843 8.66697 0.50164C9.70615 -0.228594 12.4586 -0.144336 13.4416 0.64207C13.9752 1.06336 14.1156 1.6672 13.6382 2.10254C11.8969 3.6613 11.8547 5.71158 11.8688 7.78993C11.8688 8.77294 11.8828 8.77294 10.8858 8.73081C9.70615 8.67464 9.70615 8.67464 9.8185 7.52312C9.8185 7.32652 9.84659 7.12992 9.84659 7.10183Z" fill="#E3710E"/>
<path d="M39.0261 19.7259C38.998 19.9365 38.984 20.2455 38.8998 20.5404C38.661 21.3127 37.987 21.6357 37.3129 21.2144C35.9086 20.3297 34.42 20.428 32.9174 20.7651C32.3276 20.8914 31.7378 21.0459 31.1621 21.2425C30.6987 21.411 30.5161 21.2987 30.474 20.8212C30.4459 20.5263 30.3897 20.2033 30.2633 19.9365C29.9684 19.2765 30.3335 19.1642 30.8672 19.108C31.8502 19.0097 32.7911 18.7148 33.7039 18.3497C34.6728 17.9565 35.4873 17.3526 36.0631 16.4539C36.6669 15.527 37.341 15.513 38.001 16.4117C38.7031 17.3526 38.9419 18.4761 39.0261 19.7259Z" fill="#E3710E"/>
<path d="M37.325 26.4669C37.2969 27.2814 37.1846 28.1521 36.6931 28.9244C36.1875 29.7108 35.4432 29.8091 34.9377 29.0368C33.9687 27.5903 32.5785 27.3376 31.0197 27.4218C30.6827 27.4359 30.5563 27.4078 30.6125 27.0286C30.6827 26.495 30.5282 25.849 30.795 25.4558C31.104 24.9784 31.7499 25.4558 32.2555 25.4418C33.393 25.4277 34.3338 25.1469 35.1343 24.2762C35.9067 23.4336 36.6931 23.6443 37.0863 24.7115C37.2688 25.2733 37.311 25.8209 37.325 26.4669Z" fill="#E3710E"/>
<path d="M30.8508 9.3208C30.9772 9.36293 31.2019 9.37697 31.3844 9.47527C32.7747 10.2757 33.7717 11.4132 34.0666 13.0422C34.2211 13.8988 33.6594 14.4605 32.8308 14.2358C31.2159 13.7865 29.9942 14.4324 28.9269 15.4997C28.5758 15.8508 28.4073 15.8227 28.1686 15.4295C27.9018 14.9942 27.3541 14.601 27.34 14.1797C27.326 13.7584 28.0562 13.632 28.4213 13.309C29.278 12.5788 29.8537 11.7502 29.8537 10.5566C29.8397 9.74209 30.2048 9.33484 30.8508 9.3208Z" fill="#E3710E"/>
<path d="M3.67652 8.81536C3.53609 8.81536 3.39566 8.80132 3.25523 8.81536C2.69351 8.88558 2.58117 8.71706 2.65138 8.12726C2.80585 6.73701 2.58117 5.44506 1.35943 4.49013C0.474722 3.80203 0.629193 2.91732 1.68241 2.51008C2.98841 2.01857 4.33653 1.97644 5.65657 2.51008C6.66766 2.91732 6.86427 3.81607 6.03573 4.44801C4.79995 5.40293 4.56123 6.68084 4.7157 8.07109C4.79996 8.74515 4.61739 8.89962 4.02759 8.80132C3.91525 8.80132 3.78886 8.81536 3.67652 8.81536Z" fill="#E3710E"/>
<path d="M17.6491 2.62256C18.7445 2.67873 19.7135 2.8332 20.556 3.38088C21.4829 3.98472 21.539 4.84135 20.5982 5.36093C19.1658 6.1333 18.7866 7.41121 18.7164 8.87167C18.6883 9.39126 18.5619 9.51765 18.0704 9.37722C17.5789 9.23679 16.8768 9.32104 16.624 9.02614C16.4134 8.77337 16.7644 8.09931 16.8347 7.59376C16.961 6.61076 16.8768 5.69796 16.1887 4.89751C15.8236 4.49027 15.3601 4.06898 15.641 3.423C15.9219 2.80511 16.5257 2.72086 17.1155 2.65064C17.3262 2.62256 17.5368 2.62256 17.6491 2.62256Z" fill="#E3710E"/>
<path d="M25.9936 42.0267C26.5693 40.4118 25.6706 39.19 24.5191 38.0666C24.3084 37.8559 24.2382 37.7155 24.5331 37.547C24.5472 37.533 24.5753 37.5189 24.5893 37.5049C25.0106 37.1678 25.4038 36.6202 25.8672 36.564C26.3166 36.5078 26.471 37.2661 26.8081 37.6172C27.5523 38.4177 28.3668 38.9653 29.5464 38.9372C30.8103 38.9092 31.2316 39.7096 30.5716 40.7909C29.8694 41.9424 28.8724 42.771 27.5804 43.2063C26.6115 43.5153 25.9515 43.0518 25.9936 42.0267Z" fill="#E3710E"/>
</svg>
